<mxfile host="app.diagrams.net" modified="2023-11-01T17:12:12.904Z" agent="Mozilla/5.0 (Windows NT 10.0; Win64; x64; rv:109.0) Gecko/20100101 Firefox/119.0" etag="IGYFj6d8MeFqVtI5osbn" version="22.0.8" type="device">
  <diagram name="Page-1" id="dFcquWwJ8uQ9ZjPQDd2V">
    <mxGraphModel dx="1194" dy="786" grid="1" gridSize="10" guides="1" tooltips="1" connect="1" arrows="1" fold="1" page="1" pageScale="1" pageWidth="827" pageHeight="1169" math="0" shadow="0">
      <root>
        <mxCell id="0" />
        <mxCell id="1" parent="0" />
        <mxCell id="1a9GIlHgZrF3EJX6iv9d-1" value="Actor" style="shape=umlActor;verticalLabelPosition=bottom;verticalAlign=top;html=1;outlineConnect=0;fontSize=1;" vertex="1" parent="1">
          <mxGeometry x="190" y="190" width="110" height="200" as="geometry" />
        </mxCell>
        <mxCell id="1a9GIlHgZrF3EJX6iv9d-2" value="Usuario no registrado" style="text;html=1;align=center;verticalAlign=middle;resizable=0;points=[];autosize=1;strokeColor=none;fillColor=none;" vertex="1" parent="1">
          <mxGeometry x="175" y="410" width="140" height="30" as="geometry" />
        </mxCell>
        <mxCell id="1a9GIlHgZrF3EJX6iv9d-3" value="" style="whiteSpace=wrap;html=1;aspect=fixed;" vertex="1" parent="1">
          <mxGeometry x="414" y="120" width="340" height="340" as="geometry" />
        </mxCell>
        <mxCell id="1a9GIlHgZrF3EJX6iv9d-4" value="Sistema" style="text;html=1;strokeColor=none;fillColor=none;align=center;verticalAlign=middle;whiteSpace=wrap;rounded=0;" vertex="1" parent="1">
          <mxGeometry x="554" y="160" width="60" height="30" as="geometry" />
        </mxCell>
        <mxCell id="1a9GIlHgZrF3EJX6iv9d-6" value="Jugar una partida en solitario" style="ellipse;whiteSpace=wrap;html=1;aspect=fixed;" vertex="1" parent="1">
          <mxGeometry x="544" y="230" width="110" height="110" as="geometry" />
        </mxCell>
        <mxCell id="1a9GIlHgZrF3EJX6iv9d-7" value="" style="endArrow=none;html=1;rounded=0;exitX=0.75;exitY=0.1;exitDx=0;exitDy=0;exitPerimeter=0;" edge="1" parent="1" source="1a9GIlHgZrF3EJX6iv9d-1" target="1a9GIlHgZrF3EJX6iv9d-6">
          <mxGeometry width="50" height="50" relative="1" as="geometry">
            <mxPoint x="330" y="420" as="sourcePoint" />
            <mxPoint x="380" y="370" as="targetPoint" />
          </mxGeometry>
        </mxCell>
      </root>
    </mxGraphModel>
  </diagram>
</mxfile>
